<?xml version="1.0" encoding="utf-8"?>
<!-- Generator: Adobe Illustrator 22.1.0, SVG Export Plug-In . SVG Version: 6.00 Build 0)  -->
<svg version="1.1" id="Layer_1" xmlns="http://www.w3.org/2000/svg" xmlns:xlink="http://www.w3.org/1999/xlink" x="0px" y="0px"
	 viewBox="0 0 700 700" style="enable-background:new 0 0 700 700;" xml:space="preserve">
<g transform="translate(0.000000,700.000000) scale(0.100000,-0.100000)">
	<path d="M22,1259l-20-37l1155,1l575,987h1736c0,0,1-970,1-976c1-8,2088-12,2180,1c188,28,336,75,499,160c149,78,251,154,387,290
		c237,235,390,524,445,835c22,127,20,359-4,490c-18,97-65,264-95,330c-11,25-20,50-21,55c-1,6-5,15-10,20c-4,6-22,37-40,70
		c-68,128-216,306-330,399c-181,147-440,259-675,290c-22,3-60,9-85,12c-25,4-1253,13-1256,17c-6,5-9,430-5,557l1,25
		c0,0,1977,8,1981,12c4,5,560,983,560,983l-4360-1C2641,5779,56,1320,22,1259z M3466,3997l-1-792h-578c-401,0-576,3-573,11
		c2,5,151,266,331,580c181,313,380,659,443,769s119,206,125,213c7,9,43,12,132,11l122-1L3466,3997z M5530,3196c95-5,120-10,188-32
		c191-64,290-218,290-451s-139-407-384-479c-53-16-116-18-607-19c-348-1-550,2-554,9c-5,7-8,928-4,968
		C4461,3205,5323,3208,5530,3196z"/>
</g>
</svg>
