<?xml version="1.0" standalone="no"?>
<!DOCTYPE svg PUBLIC "-//W3C//DTD SVG 20010904//EN"
 "http://www.w3.org/TR/2001/REC-SVG-20010904/DTD/svg10.dtd">
<svg version="1.0" xmlns="http://www.w3.org/2000/svg"
 width="1024.000000pt" height="1024.000000pt" viewBox="0 0 1024.000000 1024.000000"
 preserveAspectRatio="xMidYMid meet">
<metadata>
Created by potrace 1.11, written by Peter Selinger 2001-2013
</metadata>
<g transform="translate(0.000000,1024.000000) scale(0.100000,-0.100000)"
fill="#000000" stroke="none">
<path d="M3865 8445 c-7 -5 -41 -59 -76 -120 -34 -60 -265 -459 -512 -885
-247 -426 -456 -788 -466 -805 -9 -16 -18 -32 -21 -35 -3 -3 -12 -19 -21 -35
-9 -17 -80 -140 -159 -275 -78 -135 -153 -263 -165 -285 -13 -22 -68 -118
-124 -214 -56 -95 -101 -177 -101 -182 0 -5 -4 -9 -10 -9 -5 0 -10 -5 -10 -11
0 -5 -43 -82 -95 -171 -52 -88 -95 -161 -95 -163 0 -2 -28 -50 -62 -107 -33
-56 -72 -123 -86 -148 -14 -25 -35 -61 -46 -81 -12 -20 -49 -85 -84 -145 -35
-60 -67 -116 -72 -124 -13 -20 -456 -783 -488 -840 -14 -25 -97 -169 -185
-320 -88 -151 -168 -288 -177 -305 -28 -50 -238 -412 -310 -535 -37 -63 -76
-131 -87 -150 -11 -19 -62 -107 -113 -195 -51 -88 -135 -234 -188 -325 -52
-91 -99 -171 -105 -177 -6 -9 -5 -13 4 -14 50 -3 1681 0 1683 2 3 5 743 1274
771 1324 13 22 34 58 47 81 l23 40 1268 0 1267 0 0 -723 0 -723 23 -1 c147 -4
3003 1 3062 5 92 7 233 30 320 52 33 8 70 17 83 20 37 8 169 53 252 86 397
157 794 485 1048 865 34 51 62 95 62 99 0 4 6 15 14 23 22 25 120 226 159 326
55 139 109 337 123 450 3 22 9 67 14 100 8 60 6 422 -3 460 -2 11 -7 41 -11
66 -68 465 -275 888 -591 1204 -49 50 -110 106 -134 125 -24 19 -48 40 -55 45
-15 14 -184 126 -216 144 -212 114 -463 205 -650 235 -19 3 -46 8 -60 10 -34
6 -103 15 -180 22 -36 4 -456 7 -935 8 l-870 1 -2 433 c-1 237 1 432 5 433 4
1 656 2 1449 2 793 1 1443 4 1445 7 3 3 26 43 52 90 60 106 71 125 224 395
159 281 300 530 325 575 10 19 36 64 57 100 42 73 78 138 106 190 11 19 21 37
24 40 3 3 10 16 16 30 l11 25 -3180 0 c-2105 0 -3184 -3 -3192 -10z m1203
-2600 l2 -1160 -849 0 c-467 0 -848 2 -846 5 1 3 54 95 117 205 64 110 167
290 230 400 63 110 141 245 173 300 32 55 67 116 78 135 10 19 88 154 172 300
84 146 212 369 284 495 72 127 135 237 141 245 5 8 36 63 70 122 33 59 68 108
77 110 9 2 91 3 182 3 l166 -1 3 -1159z m3082 -1169 c70 -9 73 -9 140 -25 323
-75 493 -303 499 -667 3 -200 -57 -362 -188 -506 -37 -41 -154 -124 -216 -152
-22 -11 -47 -23 -57 -27 -31 -15 -151 -44 -228 -56 -46 -6 -1546 -12 -1567 -5
-9 3 -12 178 -11 725 l0 722 782 -1 c429 0 810 -4 846 -8z"/>
</g>
</svg>
