<svg width="96" height="96" viewBox="0 0 96 96" fill="none" xmlns="http://www.w3.org/2000/svg">
<g clip-path="url(#clip0)">
<path d="M57.8436 0.948751C41.5888 5.0835 31.7642 21.3898 35.7146 37.6903C38.0167 47.1891 44.517 54.5417 52.7492 58.2868C53.0978 58.4454 53.3404 58.7709 53.3824 59.1516C53.6229 61.3322 53.5682 63.7727 52.9144 66.2861C52.6869 67.1604 53.5642 67.9166 54.3876 67.545C56.4637 66.6077 59.6713 64.7379 62.2877 61.3582C62.5084 61.0732 62.8586 60.9234 63.2181 60.9487C66.6008 61.1869 70.0845 60.8631 73.5486 59.8999C89.6072 55.4353 99.0488 39.0971 94.9168 22.9496C90.7455 6.64744 74.157 -3.20081 57.8436 0.948751Z" fill="#E9E9E9"/>
<path d="M73.5478 59.9006C70.0851 60.8631 66.6009 61.1865 63.2177 60.9484C62.8594 60.9232 62.5089 61.0742 62.2881 61.359C59.6717 64.7385 56.4645 66.6073 54.3885 67.5446C53.5635 67.9164 52.6862 67.1612 52.9147 66.2857C53.2768 64.8894 53.4551 63.5143 53.5016 62.1956C55.2079 61.1188 57.1232 59.5753 58.7983 57.4121C59.0192 57.1275 59.3696 56.9782 59.7298 57.0036C63.1112 57.2417 66.5953 56.9184 70.0599 55.9539C86.1187 51.4899 95.5599 35.1523 91.427 19.0044C90.4181 15.0613 88.6828 11.4979 86.3994 8.41669C90.416 12.2319 93.443 17.1877 94.9168 22.9494C99.0478 39.0971 89.6066 55.4347 73.5478 59.9006Z" fill="#D2D2D2"/>
<path d="M37.9669 95.9996H4.92131V82.2577C4.92131 75.7627 10.1865 70.4976 16.6815 70.4976H26.2065C32.7015 70.4976 37.9667 75.7627 37.9667 82.2577V95.9996H37.9669Z" fill="#3DAAED"/>
<path d="M37.9667 82.2583V96H34.4661V82.2585C34.4661 75.7622 29.202 70.4981 22.7072 70.4981H26.2063C32.7011 70.4979 37.9667 75.762 37.9667 82.2583Z" fill="#2B91D0"/>
<path d="M38.9385 45.5001H38.7113V35.7962H4.17638V45.5001H3.94913C1.83094 45.5001 0.113814 47.2172 0.113814 49.3354C0.113814 51.4536 1.83094 53.1707 3.94913 53.1707H4.17638V53.2935C4.17638 60.1778 9.75713 65.7585 16.6414 65.7585H26.2464C33.1307 65.7585 38.7114 60.1778 38.7114 53.2935V53.1707H38.9387C41.0569 53.1707 42.774 51.4536 42.774 49.3354C42.7738 47.2172 41.0567 45.5001 38.9385 45.5001Z" fill="#FED2A4"/>
<path d="M42.7746 49.3354C42.7746 51.4528 41.0567 53.1705 38.9394 53.1705H38.7103V53.2944C38.7103 60.1772 33.1316 65.7583 26.2464 65.7583H24.0401C30.5256 65.3213 35.6509 59.9201 35.6509 53.3226V36.3716L38.7101 36.3435V45.5003H38.9392C39.9979 45.5003 40.9562 45.9304 41.6503 46.6245C42.3444 47.3184 42.7746 48.2766 42.7746 49.3354Z" fill="#FFBD86"/>
<path d="M21.4442 75.2364C19.1372 75.2364 17.2671 73.3663 17.2671 71.0593V65.7585H25.6211V71.0593C25.6211 73.3663 23.751 75.2364 21.4442 75.2364Z" fill="#FED2A4"/>
<path d="M17.2671 65.7585H25.6211V68.2616H17.2671V65.7585Z" fill="#FFBD86"/>
<path d="M14.1977 85.4045V96H11.2926V85.7299L10.2234 83.4737C9.87863 82.7475 10.1886 81.8818 10.9129 81.539C11.6372 81.1963 12.5048 81.5042 12.8475 82.2304L14.058 84.7828C14.1491 84.9765 14.1977 85.1895 14.1977 85.4045Z" fill="#2B91D0"/>
<path d="M32.6655 83.4737L31.5964 85.7299V96H28.6914V85.4046C28.6914 85.1895 28.7379 84.9765 28.8309 84.7828L30.0394 82.2304C30.3842 81.5042 31.2499 81.1943 31.974 81.5391C32.7004 81.8818 33.0084 82.7475 32.6655 83.4737Z" fill="#2B91D0"/>
<path d="M14.0809 50.7913C13.3042 50.7913 12.6746 50.1619 12.6746 49.3851V47.1202C12.6746 46.3434 13.3042 45.714 14.0809 45.714C14.8575 45.714 15.4871 46.3434 15.4871 47.1202V49.3851C15.4871 50.1617 14.8575 50.7913 14.0809 50.7913Z" fill="#444444"/>
<path d="M28.8075 50.7913C28.0309 50.7913 27.4012 50.1619 27.4012 49.3851V47.1202C27.4012 46.3434 28.0309 45.714 28.8075 45.714C29.5841 45.714 30.2137 46.3434 30.2137 47.1202V49.3851C30.2137 50.1617 29.5841 50.7913 28.8075 50.7913Z" fill="#444444"/>
<path d="M21.4442 59.6946C19.9241 59.6946 18.5064 58.8765 17.7443 57.5597C17.3554 56.8873 17.5849 56.0271 18.2571 55.6382C18.9291 55.2491 19.7893 55.4786 20.1786 56.1508C20.4396 56.6018 20.9244 56.8819 21.4442 56.8819C21.9639 56.8819 22.4486 56.6019 22.7096 56.151C23.0987 55.479 23.9591 55.2495 24.6311 55.6384C25.3033 56.0273 25.533 56.8875 25.1439 57.5599C24.3819 58.8767 22.9644 59.6946 21.4442 59.6946Z" fill="#444444"/>
<path d="M16.0978 20.3614L5.38838 24.7907C3.11194 25.7324 1.91494 28.2419 2.61581 30.6036L4.15088 35.7758H21.444H21.4444H38.7375L40.2726 30.6036C40.9734 28.2419 39.7764 25.7324 37.5 24.7909L26.7909 20.3616C23.3672 18.9454 19.5216 18.9454 16.0978 20.3614Z" fill="#3DAAED"/>
<path d="M40.2707 30.6011L38.7373 35.7741H35.5022L37.2765 29.7997C37.9189 27.6364 37.1839 25.3665 35.5378 23.9767L37.5021 24.7905C39.7781 25.7323 40.9733 28.2401 40.2707 30.6011Z" fill="#2B91D0"/>
<path d="M21.4444 35.7751C21.4444 35.7751 4.164 35.7751 4.15088 35.7751C4.15088 35.7751 5.394 37.3869 6.19312 38.1517C7.19475 39.1102 8.34825 39.9836 9.65156 40.7111C13.866 43.0631 19.2812 44.1217 24.4826 43.541C27.3608 43.2196 30.1238 42.3976 32.5074 41.1433C33.2766 40.7386 34.005 40.2892 34.6886 39.8058C36.3341 38.6422 38.1156 36.9088 38.7377 35.7751H21.4444Z" fill="#5A5A5A"/>
<path d="M38.7377 35.7737C38.1178 36.9073 36.3354 38.6413 34.6877 39.8055C34.0065 40.2894 33.2766 40.7398 32.5057 41.1443C30.1237 42.3973 27.3626 43.2184 24.483 43.5401C20.7266 43.9599 16.86 43.5248 13.4136 42.3636C15.4365 42.621 20.0424 42.6456 22.086 42.4187C24.9654 42.0971 27.7267 41.2729 30.1127 40.0198C30.8794 39.6154 31.6095 39.165 32.2946 38.6809C33.4571 37.8598 34.6888 36.7507 35.529 35.7735H38.7377V35.7737Z" fill="#444444"/>
<path d="M51.1671 22.156L51.999 23.8418C52.1291 24.1056 52.3809 24.2884 52.6721 24.3308L54.5325 24.6012C55.2656 24.7077 55.5585 25.6088 55.0279 26.1259L53.6816 27.4382C53.4709 27.6435 53.3749 27.9394 53.4246 28.2295L53.7424 30.0823C53.8676 30.8127 53.1011 31.3695 52.4454 31.0247L50.7814 30.1498C50.5209 30.013 50.2099 30.013 49.9494 30.1498L48.2854 31.0247C47.6295 31.3695 46.8632 30.8127 46.9884 30.0823L47.3063 28.2295C47.3559 27.9394 47.2599 27.6435 47.0492 27.4382L45.7029 26.1259C45.1723 25.6088 45.4652 24.7077 46.1983 24.6012L48.0587 24.3308C48.3499 24.2884 48.6015 24.1056 48.7318 23.8418L49.5638 22.156C49.8919 21.4915 50.8393 21.4915 51.1671 22.156Z" fill="#FAC600"/>
<path d="M66.1657 22.156L66.9977 23.8418C67.1278 24.1056 67.3796 24.2884 67.6708 24.3308L69.5312 24.6012C70.2643 24.7077 70.5572 25.6088 70.0266 26.1259L68.6803 27.4382C68.4696 27.6435 68.3736 27.9394 68.4233 28.2295L68.7411 30.0823C68.8663 30.8127 68.0998 31.3695 67.4441 31.0247L65.7801 30.1498C65.5196 30.013 65.2086 30.013 64.9481 30.1498L63.2841 31.0247C62.6282 31.3695 61.8619 30.8127 61.9871 30.0823L62.3049 28.2295C62.3546 27.9394 62.2586 27.6435 62.0479 27.4382L60.7016 26.1259C60.171 25.6088 60.4639 24.7077 61.197 24.6012L63.0574 24.3308C63.3486 24.2884 63.6002 24.1056 63.7305 23.8418L64.5624 22.156C64.8904 21.4915 65.8378 21.4915 66.1657 22.156Z" fill="#FAC600"/>
<path d="M81.1642 22.156L81.9962 23.8418C82.1263 24.1056 82.3781 24.2884 82.6693 24.3308L84.5297 24.6012C85.2628 24.7077 85.5557 25.6088 85.0251 26.1259L83.6788 27.4382C83.4681 27.6435 83.3721 27.9394 83.4217 28.2295L83.7396 30.0823C83.8648 30.8127 83.0983 31.3695 82.4426 31.0247L80.7786 30.1498C80.5181 30.013 80.2071 30.013 79.9466 30.1498L78.2826 31.0247C77.6267 31.3695 76.8604 30.8127 76.9856 30.0823L77.3034 28.2295C77.3531 27.9394 77.2571 27.6435 77.0464 27.4382L75.7001 26.1259C75.1695 25.6088 75.4624 24.7077 76.1955 24.6012L78.0559 24.3308C78.3471 24.2884 78.5987 24.1056 78.729 23.8418L79.5609 22.156C79.8889 21.4915 80.8363 21.4915 81.1642 22.156Z" fill="#FAC600"/>
<path d="M58.6665 34.434L59.4984 36.1198C59.6286 36.3836 59.8804 36.5664 60.1716 36.6088L62.0319 36.8792C62.7651 36.9857 63.0579 37.8868 62.5273 38.4039L61.1811 39.7162C60.9703 39.9215 60.8743 40.2174 60.924 40.5075L61.2418 42.3604C61.3671 43.0907 60.6006 43.6475 59.9449 43.3027L58.2808 42.4279C58.0204 42.291 57.7093 42.291 57.4489 42.4279L55.7848 43.3027C55.1289 43.6475 54.3626 43.0907 54.4879 42.3604L54.8057 40.5075C54.8554 40.2174 54.7594 39.9215 54.5486 39.7162L53.2024 38.4039C52.6717 37.8868 52.9646 36.9857 53.6977 36.8792L55.5581 36.6088C55.8493 36.5664 56.1009 36.3836 56.2312 36.1198L57.0632 34.434C57.3911 33.7695 58.3386 33.7695 58.6665 34.434Z" fill="#FAC600"/>
<path d="M73.665 34.434L74.4969 36.1198C74.6271 36.3836 74.8789 36.5664 75.1701 36.6088L77.0304 36.8792C77.7636 36.9857 78.0564 37.8868 77.5258 38.4039L76.1796 39.7162C75.9688 39.9215 75.8728 40.2174 75.9225 40.5075L76.2403 42.3604C76.3656 43.0907 75.5991 43.6475 74.9434 43.3027L73.2793 42.4279C73.0189 42.291 72.7078 42.291 72.4474 42.4279L70.7833 43.3027C70.1274 43.6475 69.3611 43.0907 69.4864 42.3604L69.8042 40.5075C69.8539 40.2174 69.7579 39.9215 69.5471 39.7162L68.2009 38.4039C67.6702 37.8868 67.9631 36.9857 68.6962 36.8792L70.5566 36.6088C70.8478 36.5664 71.0994 36.3836 71.2297 36.1198L72.0617 34.434C72.3896 33.7695 73.3371 33.7695 73.665 34.434Z" fill="#FAC600"/>
</g>
<defs>
<clipPath id="clip0">
<path d="M0 0H96V96H0V0Z" fill="white"/>
</clipPath>
</defs>
</svg>
