<svg width="96" height="96" viewBox="0 0 96 96" fill="none" xmlns="http://www.w3.org/2000/svg">
<g clip-path="url(#clip0)">
<path d="M83.1817 96H12.8179C10.9044 96 9.35342 94.449 9.35342 92.5356V3.46444C9.35342 1.551 10.9044 0 12.8179 0H83.1817C85.0952 0 86.6462 1.551 86.6462 3.46444V92.5356C86.6462 94.449 85.095 96 83.1817 96Z" fill="#EBEBEB"/>
<path d="M86.6462 19.0084H9.35342V3.46444C9.35342 1.551 10.9044 0 12.8179 0H83.1817C85.0952 0 86.6462 1.551 86.6462 3.46444V19.0084Z" fill="#FAC600"/>
<path d="M86.6466 3.46405V92.5357C86.6466 94.4492 85.0947 95.9992 83.1812 95.9992H79.1263C81.0398 95.9992 82.5898 94.4492 82.5898 92.5357V3.46405C82.5898 1.55061 81.0398 0.000549316 79.1263 0.000549316H83.1812C85.0947 0.000736816 86.6466 1.55061 86.6466 3.46405Z" fill="#D3D1D1"/>
<path d="M86.6466 3.46405V19.0089H82.5898V3.46405C82.5898 1.55061 81.0398 0.000549316 79.1263 0.000549316H83.1812C85.0947 0.000736816 86.6466 1.55061 86.6466 3.46405Z" fill="#E0AE10"/>
<path d="M78.5215 27.9648H57.9056C57.1288 27.9648 56.4994 27.3354 56.4994 26.5586C56.4994 25.7818 57.1288 25.1523 57.9056 25.1523H78.5215C79.2983 25.1523 79.9277 25.7818 79.9277 26.5586C79.9277 27.3354 79.2983 27.9648 78.5215 27.9648Z" fill="#ACACAC"/>
<path d="M78.5215 34.0355H57.9056C57.1288 34.0355 56.4994 33.4061 56.4994 32.6293C56.4994 31.8525 57.1288 31.223 57.9056 31.223H78.5215C79.2983 31.223 79.9277 31.8525 79.9277 32.6293C79.9277 33.4061 79.2983 34.0355 78.5215 34.0355Z" fill="#ACACAC"/>
<path d="M78.5215 40.1066H57.9056C57.1288 40.1066 56.4994 39.4772 56.4994 38.7004C56.4994 37.9236 57.1288 37.2941 57.9056 37.2941H78.5215C79.2983 37.2941 79.9277 37.9236 79.9277 38.7004C79.9277 39.4772 79.2983 40.1066 78.5215 40.1066Z" fill="#ACACAC"/>
<path d="M78.5215 46.1774H57.9056C57.1288 46.1774 56.4994 45.548 56.4994 44.7712C56.4994 43.9944 57.1288 43.3649 57.9056 43.3649H78.5215C79.2983 43.3649 79.9277 43.9944 79.9277 44.7712C79.9277 45.548 79.2983 46.1774 78.5215 46.1774Z" fill="#ACACAC"/>
<path d="M78.5215 52.2484H57.9056C57.1288 52.2484 56.4994 51.6189 56.4994 50.8421C56.4994 50.0653 57.1288 49.4359 57.9056 49.4359H78.5215C79.2983 49.4359 79.9277 50.0653 79.9277 50.8421C79.9277 51.6189 79.2983 52.2484 78.5215 52.2484Z" fill="#ACACAC"/>
<path d="M78.5215 58.3194H57.9056C57.1288 58.3194 56.4994 57.69 56.4994 56.9131C56.4994 56.1363 57.1288 55.5069 57.9056 55.5069H78.5215C79.2983 55.5069 79.9277 56.1363 79.9277 56.9131C79.9277 57.69 79.2983 58.3194 78.5215 58.3194Z" fill="#ACACAC"/>
<path d="M78.5214 65.8345H17.478C16.7012 65.8345 16.0717 65.205 16.0717 64.4282C16.0717 63.6514 16.7012 63.022 17.478 63.022H78.5214C79.2982 63.022 79.9277 63.6514 79.9277 64.4282C79.9277 65.205 79.2982 65.8345 78.5214 65.8345Z" fill="#ACACAC"/>
<path d="M78.5214 72.4056H17.478C16.7012 72.4056 16.0717 71.7762 16.0717 70.9994C16.0717 70.2226 16.7012 69.5931 17.478 69.5931H78.5214C79.2982 69.5931 79.9277 70.2226 79.9277 70.9994C79.9277 71.7762 79.2982 72.4056 78.5214 72.4056Z" fill="#ACACAC"/>
<path d="M72.7234 88.5873C75.9257 88.5873 78.5216 85.9914 78.5216 82.7891C78.5216 79.5868 75.9257 76.9908 72.7234 76.9908C69.5211 76.9908 66.9251 79.5868 66.9251 82.7891C66.9251 85.9914 69.5211 88.5873 72.7234 88.5873Z" fill="#0593FC"/>
<path d="M78.5215 82.7891C78.5215 85.9916 75.9259 88.5873 72.7232 88.5873C70.4715 88.5873 68.5176 87.3041 67.5589 85.4253C68.3571 85.8408 69.2636 86.0746 70.2261 86.0746C73.4286 86.0746 76.0243 83.4791 76.0243 80.2764C76.0243 79.3274 75.7963 78.4306 75.3904 77.6401C77.2517 78.6046 78.5215 80.549 78.5215 82.7891Z" fill="#0182FC"/>
<path d="M24.2272 89.9936H17.478C16.7012 89.9936 16.0717 89.3642 16.0717 88.5873C16.0717 87.8105 16.7012 87.1811 17.478 87.1811H24.2272C25.0041 87.1811 25.6335 87.8105 25.6335 88.5873C25.6335 89.3642 25.0039 89.9936 24.2272 89.9936Z" fill="#ACACAC"/>
<path d="M37.8066 89.9936H31.0575C30.2807 89.9936 29.6512 89.3642 29.6512 88.5873C29.6512 87.8105 30.2807 87.1811 31.0575 87.1811H37.8066C38.5834 87.1811 39.2128 87.8105 39.2128 88.5873C39.2128 89.3642 38.5832 89.9936 37.8066 89.9936Z" fill="#ACACAC"/>
<path d="M34.3776 58.6352C43.7109 58.6352 51.2771 51.069 51.2771 41.7356C51.2771 32.4022 43.7109 24.8361 34.3776 24.8361C25.0442 24.8361 17.478 32.4022 17.478 41.7356C17.478 51.069 25.0442 58.6352 34.3776 58.6352Z" fill="#0593FC"/>
<path d="M51.2775 41.7356C51.2775 51.0693 43.7113 58.6355 34.3775 58.6355C32.484 58.6355 30.662 58.3243 28.9618 57.7483C29.8144 57.8812 30.6864 57.9495 31.5761 57.9495C40.9098 57.9495 48.476 50.3833 48.476 41.0508C48.476 33.6084 43.6663 27.2904 36.9851 25.0359C45.0808 26.2897 51.2775 33.2891 51.2775 41.7356Z" fill="#0182FC"/>
<path d="M42.0332 55.4023V56.805C39.735 57.9753 37.134 58.635 34.3776 58.635C31.6211 58.635 29.0201 57.9753 26.722 56.805V55.4023C26.722 52.3936 29.1626 49.9548 32.1711 49.9548H36.5841C39.5927 49.9548 42.0332 52.3936 42.0332 55.4023Z" fill="#FAC600"/>
<path d="M42.0332 55.4029V56.8058C41.3456 57.1543 40.632 57.4588 39.8955 57.7142V56.1804C39.8955 53.2995 38.5908 50.8508 36.0144 49.9554H36.584C39.5927 49.9554 42.0332 52.3943 42.0332 55.4029Z" fill="#E0AE10"/>
<path d="M32.232 29.7617L27.9339 31.5393C27.0202 31.9172 26.5399 32.9244 26.8211 33.8722L27.4372 35.948H34.3776H34.3777H41.3181L41.9342 33.8722C42.2154 32.9244 41.7351 31.9173 40.8216 31.5393L36.5237 29.7618C35.1493 29.1933 33.606 29.1933 32.232 29.7617Z" fill="#FAC600"/>
<path d="M41.9335 33.8715L41.3181 35.9471H39.0085L39.7418 32.9713C39.9546 32.2528 39.7991 31.5047 39.375 30.9399L40.822 31.539C41.7355 31.917 42.2149 32.9237 41.9335 33.8715Z" fill="#E0AE10"/>
<path d="M41.4092 39.848H41.3178V35.9478H27.4372V39.848H27.3459C26.4945 39.848 25.8045 40.5382 25.8045 41.3894C25.8045 42.2409 26.4947 42.9309 27.3459 42.9309H27.4372V42.9802C27.4372 45.7471 29.6803 47.9902 32.4472 47.9902H36.3078C39.0748 47.9902 41.3178 45.7471 41.3178 42.9802V42.9309H41.4092C42.2606 42.9309 42.9506 42.2407 42.9506 41.3894C42.9506 40.5382 42.2604 39.848 41.4092 39.848Z" fill="#FED2A4"/>
<path d="M42.951 41.3894C42.951 42.2405 42.2606 42.9309 41.4096 42.9309H41.3175V42.9808C41.3175 45.7471 39.0752 47.9904 36.3079 47.9904H34.8686C37.4752 47.8147 39.5353 45.6438 39.5353 42.992V35.9591L41.3175 35.9478V39.848H41.4096C41.835 39.848 42.2203 40.0209 42.4991 40.2999C42.7779 40.5789 42.951 40.964 42.951 41.3894Z" fill="#FFBD86"/>
<path d="M34.3775 35.9478C34.3775 35.9478 27.4425 35.9478 27.4372 35.9478C27.4372 35.9478 27.9362 36.809 28.2568 37.2176C28.6588 37.7296 29.1217 38.1963 29.6449 38.585C31.3361 39.8416 33.5096 40.4073 35.597 40.097C36.752 39.9253 37.8611 39.4861 38.8177 38.816C39.1264 38.5998 39.4189 38.3596 39.6932 38.1014C40.3535 37.4797 41.0685 36.5536 41.3182 35.9478H34.3775Z" fill="#5A5A5A"/>
<path d="M41.3179 35.9469C41.0691 36.5525 40.3537 37.479 39.6924 38.1011C39.4191 38.3596 39.126 38.6002 38.8168 38.8164C37.8609 39.486 36.7526 39.9245 35.5971 40.0965C34.0896 40.3207 32.5378 40.0882 31.1546 39.468C31.9665 39.6054 32.7996 39.6185 33.6197 39.4974C34.7752 39.3256 35.8834 38.8852 36.8411 38.2158C37.1488 37.9998 37.4419 37.7591 37.7167 37.5005C38.1832 37.0618 38.6777 36.4693 39.0148 35.9471H41.3179V35.9469Z" fill="#444444"/>
<path d="M34.3776 51.9437C33.2859 51.9437 32.4007 51.0587 32.4007 49.9669V47.9901H36.3542V49.9669C36.3544 51.0587 35.4694 51.9437 34.3776 51.9437Z" fill="#FED2A4"/>
<path d="M32.4002 47.9912H36.3549V49.5724H32.4002V47.9912Z" fill="#FFBD86"/>
</g>
<defs>
<clipPath id="clip0">
<path d="M0 0H96V96H0V0Z" fill="white"/>
</clipPath>
</defs>
</svg>
