<svg width="96" height="96" viewBox="0 0 96 96" fill="none" xmlns="http://www.w3.org/2000/svg">
<g clip-path="url(#clip0)">
<path d="M1.7413 60.4642C1.63068 60.4642 1.52437 60.4616 1.42237 60.4569C0.627746 60.4207 0 59.7718 0 58.9764V58.9695C0 58.1631 0.645371 57.5158 1.45143 57.4884C2.82823 57.4416 4.94866 56.9424 6.74865 54.6855C6.84952 54.5591 6.9414 54.433 7.02521 54.3077C3.9791 53.6533 2.14367 52.6125 1.42968 51.1412C1.00649 50.2694 0.786183 48.8549 2.1388 47.0676C3.07142 45.835 4.41597 45.2354 5.8284 45.4244C7.62089 45.6634 9.31044 47.1392 10.133 49.1839C10.5059 50.1107 10.6771 51.066 10.6524 52.0125C11.5068 52.101 12.3755 52.1569 13.2149 52.1753C13.9899 52.1922 14.6521 52.8002 14.6615 53.5753C14.6712 54.3801 14.02 55.023 13.2166 55.0118C13.1422 55.0103 11.7721 54.9814 10.001 54.7813C9.73532 55.3611 9.38976 55.9219 8.96582 56.4534C6.27934 59.8217 3.48335 60.4642 1.7413 60.4642ZM5.31053 48.2247C5.06828 48.2247 4.74766 48.3186 4.39966 48.7784C4.1801 49.0686 3.83379 49.6004 3.9806 49.903C4.31154 50.5857 5.83647 51.172 7.79883 51.579C7.76414 50.994 7.61621 50.5251 7.50221 50.242C7.01827 49.0394 6.10515 48.322 5.45322 48.235C5.40953 48.229 5.36172 48.2247 5.31053 48.2247Z" fill="#2B91D0"/>
<path d="M93.2638 52.3623L89.2736 51.0841C88.3187 50.7783 87.5771 50.0243 87.2764 49.0679C82.6846 34.4666 65.6338 27.7611 48.4709 27.7611C28.3914 27.7611 12.1139 36.9367 12.1139 57.1997C12.1139 68.8781 17.8418 77.0578 26.6914 81.7818C26.9091 81.898 27.0639 82.1045 27.1106 82.3467L29.0932 92.6447C29.2768 93.6148 30.1247 94.3172 31.112 94.3172H37.8071C38.7944 94.3172 39.6421 93.6148 39.8259 92.6447L40.9096 86.9193C40.9895 86.4968 41.3832 86.2122 41.8102 86.2619C43.9696 86.5126 46.1958 86.6384 48.4709 86.6384C51.5119 86.6384 54.5492 86.4138 57.5147 85.9656C57.9504 85.8998 58.3611 86.1863 58.4432 86.6193L59.5838 92.6447C59.7673 93.6148 60.6152 94.3172 61.6026 94.3172H68.2976C69.2849 94.3172 70.1326 93.6148 70.3164 92.6447L72.3757 81.7413C72.4222 81.4951 72.5804 81.2853 72.8028 81.1698C78.0582 78.4374 82.4059 74.6782 85.1789 69.8859C85.5484 69.2473 86.1327 68.7606 86.8354 68.5356L93.2644 66.4763C94.8941 65.9543 96 64.4389 96 62.7276V56.1109C95.9994 54.3996 94.8937 52.8843 93.2638 52.3623Z" fill="#3DAAED"/>
<path d="M95.4983 54.1945C95.3248 53.8836 95.1117 53.5965 94.8613 53.3432C94.8559 53.3378 94.8512 53.3318 94.8458 53.3265C94.4127 52.8934 93.8751 52.558 93.264 52.3622L90.3059 51.4148V54.8946C90.3059 59.2178 87.5513 63.0604 83.4573 64.4488C81.5956 65.045 79.9859 66.2248 78.8064 67.7838C77.3621 69.6929 75.6459 71.4086 73.7118 72.931C71.4317 74.726 69.8936 77.2947 69.4539 80.1631C69.1404 82.2085 68.8976 84.3908 68.7428 85.9373C68.6237 87.1268 67.6238 88.0326 66.4284 88.0326H61.6024C60.615 88.0326 59.7674 87.3302 59.5836 86.3601L58.4431 80.3346C58.3611 79.9017 57.9505 79.615 57.5148 79.681C54.5495 80.1291 51.5122 80.3538 48.4709 80.3538C46.1956 80.3538 43.9696 80.2279 41.8102 79.9773C41.3831 79.9278 40.9895 80.2124 40.9095 80.6348L39.8257 86.3603C39.6422 87.3304 38.7943 88.0328 37.8069 88.0328H31.1119C30.1245 88.0328 29.2769 87.3304 29.0931 86.3603L27.1105 76.0623C27.0638 75.82 26.9089 75.6136 26.6912 75.4973C18.6496 71.2044 13.1868 64.0575 12.2561 54.0255C12.2561 54.0257 12.2561 54.0259 12.2561 54.0261C12.234 54.2723 12.2145 54.5203 12.1974 54.7701C12.197 54.775 12.1968 54.7798 12.1965 54.7849C12.1948 54.8095 12.1933 54.8342 12.1918 54.859C12.177 55.0834 12.164 55.3093 12.1533 55.5366C12.149 55.6309 12.146 55.7263 12.1425 55.8212C12.1357 55.9945 12.129 56.1677 12.1246 56.3428C12.1181 56.6267 12.1138 56.9121 12.1138 57.2003C12.1138 58.6601 12.2032 60.0652 12.3772 61.4158C12.5902 63.0705 12.9313 64.6421 13.3884 66.1331C13.4133 66.2146 13.4394 66.2955 13.4651 66.3765C13.5286 66.5769 13.5946 66.7768 13.6629 66.9757C13.6901 67.055 13.7171 67.1347 13.745 67.2135C13.9331 67.7443 14.1365 68.2642 14.3549 68.7731C14.3782 68.8271 14.4013 68.8813 14.4247 68.9349C14.5323 69.1811 14.6431 69.4252 14.7579 69.6663C14.7768 69.7063 14.7967 69.7456 14.8158 69.7854C14.9227 70.0072 15.0331 70.2273 15.1464 70.4461C15.1659 70.4836 15.1848 70.5215 15.2043 70.559C15.3277 70.7937 15.4548 71.0257 15.5849 71.2554C15.6132 71.3052 15.6419 71.3549 15.6704 71.4046C16.0917 72.1364 16.5474 72.842 17.0356 73.5209C17.0823 73.5858 17.1299 73.6501 17.1772 73.7144C17.2957 73.8759 17.4161 74.036 17.5383 74.1946C17.5865 74.257 17.6343 74.3197 17.6829 74.3815C17.8482 74.5917 18.0157 74.8002 18.1874 75.005C18.1889 75.0068 18.1906 75.0087 18.1921 75.0106C18.364 75.2155 18.5403 75.4169 18.7186 75.6164C18.7726 75.677 18.8277 75.7366 18.8823 75.7966C19.0154 75.9428 19.1504 76.0876 19.2869 76.2307C19.342 76.2884 19.3968 76.3465 19.4525 76.4037C19.6394 76.5963 19.8286 76.787 20.0217 76.9741C20.0221 76.9745 20.0227 76.975 20.023 76.9754C20.2383 77.1839 20.4573 77.389 20.68 77.5908C21.1253 77.9943 21.5855 78.3841 22.0596 78.7604C22.5338 79.1367 23.0221 79.4995 23.524 79.8488C23.7749 80.0236 24.0291 80.1948 24.2868 80.3626C24.5187 80.5137 24.754 80.6613 24.9912 80.8069C25.0594 80.8489 25.1283 80.89 25.1969 80.9314C25.3761 81.0396 25.5563 81.1459 25.7374 81.2507C25.8093 81.2922 25.8809 81.334 25.9531 81.3749C26.197 81.5133 26.4424 81.6497 26.6912 81.7825C26.7456 81.8116 26.7961 81.8462 26.842 81.8858C26.8832 81.9214 26.9194 81.9619 26.9526 82.0045C26.9626 82.0171 26.971 82.0304 26.98 82.0437C27.0027 82.0767 27.0229 82.1112 27.0406 82.1474C27.0477 82.1618 27.055 82.1759 27.0612 82.1907C27.0822 82.2411 27.0998 82.2931 27.1103 82.3476L29.0929 92.6456C29.1158 92.7669 29.1492 92.8839 29.1919 92.9961C29.2133 93.0521 29.2369 93.1069 29.2628 93.1603C29.2887 93.2137 29.3168 93.2657 29.347 93.3163C29.3772 93.3669 29.4094 93.4161 29.4437 93.4635C29.478 93.5113 29.5144 93.5574 29.5527 93.6019C29.596 93.6523 29.6421 93.6997 29.6899 93.7455C29.7051 93.7599 29.721 93.7734 29.7364 93.7875C29.7709 93.8186 29.8062 93.8486 29.8425 93.8773C29.8609 93.8917 29.8795 93.9058 29.8982 93.9197C29.9357 93.947 29.9742 93.9731 30.0134 93.9979C30.031 94.0091 30.0484 94.0207 30.0664 94.0314C30.1232 94.0652 30.1815 94.0969 30.2417 94.125C30.2427 94.1254 30.2434 94.1257 30.2444 94.1261C30.3045 94.1542 30.3666 94.1786 30.4296 94.2007C30.4495 94.2077 30.4699 94.2135 30.49 94.2199C30.5348 94.2341 30.5803 94.2472 30.6265 94.2583C30.6497 94.2639 30.6732 94.2692 30.6966 94.274C30.7433 94.2836 30.7905 94.2913 30.8382 94.2977C30.8597 94.3007 30.8811 94.304 30.9027 94.3063C30.9713 94.3132 31.0407 94.3177 31.1108 94.3179C31.1112 94.3179 31.1115 94.3179 31.1119 94.3179H37.8069C38.1156 94.3179 38.4103 94.2493 38.6756 94.1254C38.7817 94.0759 38.8832 94.0174 38.9786 93.951C39.0742 93.8846 39.164 93.8102 39.2471 93.7286C39.3716 93.6064 39.4809 93.4678 39.5715 93.3161C39.6922 93.1138 39.7796 92.8881 39.8255 92.6454L40.9093 86.92V86.9198C40.9183 86.8722 40.9325 86.827 40.949 86.7833C40.9539 86.7702 40.9597 86.758 40.9654 86.7452C40.9792 86.7137 40.9946 86.6835 41.012 86.6545C41.019 86.6428 41.0255 86.6312 41.033 86.62C41.0583 86.5823 41.0855 86.5461 41.1165 86.5135C41.2005 86.4246 41.3053 86.3586 41.42 86.3145C41.4311 86.3102 41.442 86.3061 41.4532 86.3023C41.4808 86.2932 41.5083 86.2851 41.537 86.2787C41.5588 86.2738 41.5809 86.2707 41.6032 86.2675C41.6248 86.2645 41.6458 86.2607 41.6677 86.2596C41.7144 86.2568 41.7618 86.257 41.8098 86.2626C42.1697 86.3044 42.5321 86.3413 42.8956 86.3762C42.9866 86.385 43.0777 86.3935 43.1688 86.4017C43.5322 86.4347 43.8969 86.4657 44.2636 86.4917C44.2655 86.4919 44.2672 86.4919 44.2691 86.4921C44.6358 86.5182 45.0048 86.5395 45.3748 86.5587C45.4679 86.5635 45.5611 86.568 45.6545 86.5725C46.0261 86.59 46.3987 86.6052 46.7735 86.6157C47.3358 86.6314 47.9017 86.6393 48.4704 86.6393C49.2307 86.6393 49.9906 86.6252 50.7494 86.5973C51.1379 86.5828 51.526 86.5647 51.9138 86.5429C51.9534 86.5407 51.9925 86.5375 52.0321 86.5352C52.3842 86.5148 52.7362 86.4921 53.0873 86.4655C53.0956 86.4649 53.1037 86.464 53.1119 86.4634C53.8822 86.4047 54.6498 86.3318 55.4138 86.2442C55.4163 86.244 55.4185 86.2437 55.4208 86.2433C55.7703 86.2032 56.1188 86.1604 56.4668 86.1145C56.635 86.0922 56.8024 86.067 56.9701 86.0434C57.1546 86.0173 57.3396 85.993 57.5236 85.965C57.8965 85.9086 58.2484 86.1184 58.3904 86.4527C58.3922 86.457 58.3951 86.4608 58.3969 86.4653C58.4168 86.5144 58.4322 86.5662 58.4425 86.6202L59.0127 89.6329L59.5829 92.6456C59.7664 93.6157 60.6143 94.3181 61.6017 94.3181H68.2967C68.2971 94.3181 68.2974 94.3181 68.2978 94.3181C68.3681 94.3181 68.4373 94.3136 68.5059 94.3065C68.5277 94.3042 68.5489 94.3007 68.5704 94.2979C68.6181 94.2915 68.6653 94.2838 68.712 94.2742C68.7354 94.2694 68.7589 94.2641 68.7819 94.2585C68.8281 94.2472 68.8736 94.2343 68.9184 94.2199C68.9385 94.2135 68.9589 94.2077 68.9788 94.2007C69.0422 94.1784 69.1044 94.1539 69.1648 94.1257C69.1652 94.1255 69.1654 94.1254 69.1657 94.1254C69.2261 94.097 69.2846 94.0652 69.3418 94.0314C69.3598 94.0207 69.3771 94.0091 69.3949 93.9979C69.4342 93.9729 69.4727 93.9471 69.5102 93.9195C69.5289 93.9058 69.5473 93.8917 69.5655 93.8775C69.6021 93.8488 69.6373 93.8186 69.672 93.7875C69.6876 93.7734 69.7033 93.7601 69.7185 93.7457C69.7663 93.6999 69.8124 93.6523 69.8557 93.6021C69.8726 93.5824 69.8878 93.5612 69.9039 93.5407C69.9606 93.4695 70.0142 93.3954 70.0612 93.3165C70.1216 93.2154 70.1736 93.1084 70.2163 92.9962C70.2591 92.8841 70.2922 92.7671 70.3153 92.6458L70.7666 90.2565L71.2355 87.7735L71.5297 86.2163L72.3746 81.7422L72.4504 81.3409C72.5889 81.2721 72.645 81.2444 72.7837 81.1757C72.789 81.1774 72.7922 81.1767 72.795 81.1752C72.7974 81.1739 72.7993 81.1718 72.8017 81.1707C72.9624 81.0872 73.1194 80.9997 73.2782 80.9144C73.4443 80.8249 73.6123 80.7376 73.7765 80.6463C73.919 80.5669 74.0578 80.4839 74.1988 80.4031C74.376 80.3014 74.5548 80.2013 74.7298 80.0973C74.8738 80.0114 75.014 79.9219 75.1563 79.8344C75.3242 79.7313 75.4938 79.6298 75.6592 79.5244C75.8077 79.4298 75.9521 79.3313 76.0985 79.2348C76.254 79.1324 76.4115 79.0317 76.5648 78.9273C76.7096 78.8284 76.8504 78.7257 76.9931 78.625C77.1438 78.5187 77.2964 78.4145 77.4449 78.3061C77.5833 78.205 77.7174 78.1002 77.8537 77.9973C78.0024 77.8851 78.1531 77.7749 78.2992 77.6605C78.4316 77.557 78.5594 77.4498 78.6898 77.3444C78.8353 77.2268 78.983 77.111 79.1259 76.9911C79.2575 76.8809 79.3844 76.7667 79.5138 76.6544C79.6509 76.5355 79.7902 76.4185 79.9246 76.2974C80.0501 76.1845 80.1708 76.0677 80.2942 75.953C80.4277 75.8287 80.5636 75.706 80.6945 75.5795C80.8141 75.4638 80.9287 75.3443 81.0461 75.2268C81.1756 75.097 81.3072 74.9693 81.434 74.8374C81.5493 74.7172 81.6597 74.5932 81.7726 74.4714C81.896 74.338 82.0218 74.2066 82.1424 74.0712C82.2524 73.9477 82.3572 73.8202 82.4647 73.6947C82.5828 73.5569 82.7034 73.4208 82.8187 73.2807C82.9235 73.1534 83.0229 73.0222 83.1252 72.8928C83.2377 72.7507 83.3527 72.6104 83.462 72.4661C83.5625 72.3333 83.6575 72.1968 83.7554 72.0622C83.8608 71.9172 83.9688 71.7744 84.071 71.6272C84.1666 71.4896 84.2566 71.3482 84.3496 71.2089C84.4482 71.0607 84.5497 70.9145 84.6453 70.7641C84.764 70.5776 84.8725 70.3841 84.9912 70.1975C85.0617 70.0869 85.1275 69.9736 85.1935 69.8602C85.555 69.2377 86.1256 68.7637 86.8113 68.5441L86.8345 68.5366H86.8347L90.1144 67.4861L93.2635 66.4773C94.8932 65.9553 95.9991 64.44 95.9991 62.7287V56.1118C95.9991 55.5272 95.8675 54.9668 95.6323 54.4596C95.5911 54.3688 95.5463 54.2807 95.4983 54.1945Z" fill="#2B91D0"/>
<path d="M64.0663 31.3348C64.2699 30.3682 64.9386 29.5646 65.8367 29.1534C69.2874 27.5739 78.0792 23.7731 80.3394 24.957C83.1696 26.4396 81.6871 42.4445 77.3742 44.8874C73.2084 47.2471 61.1205 45.3155 64.0663 31.3348Z" fill="#2B91D0"/>
<path d="M77.1708 56.8335C74.6148 56.8335 72.5353 54.7539 72.5353 52.198C72.5353 51.415 73.17 50.7803 73.953 50.7803C74.736 50.7803 75.3706 51.415 75.3706 52.198C75.3706 53.1906 76.1782 53.9979 77.1706 53.9979C78.1632 53.9979 78.9708 53.1906 78.9708 52.198C78.9708 51.415 79.6055 50.7803 80.3885 50.7803C81.1715 50.7803 81.8062 51.415 81.8062 52.198C81.8065 54.7539 79.727 56.8335 77.1708 56.8335Z" fill="#2B91D0"/>
<path d="M56.3307 39.5568C56.1816 39.5568 56.0301 39.5332 55.8811 39.4833C48.1494 36.8984 39.633 36.8984 31.9013 39.4833C31.1588 39.7314 30.3553 39.3309 30.1073 38.5882C29.859 37.8455 30.2597 37.0423 31.0024 36.794C39.314 34.0153 48.4687 34.0153 56.7803 36.794C57.523 37.0423 57.9237 37.8455 57.6754 38.5882C57.4769 39.1818 56.9238 39.5568 56.3307 39.5568Z" fill="#2B91D0"/>
<path d="M43.8916 37.5469C53.7954 37.5469 61.824 29.5183 61.824 19.6145C61.824 9.71067 53.7954 1.68207 43.8916 1.68207C33.9878 1.68207 25.9592 9.71067 25.9592 19.6145C25.9592 29.5183 33.9878 37.5469 43.8916 37.5469Z" fill="#FAC600"/>
<path d="M79.1394 26.8116C77.1714 26.8116 72.4055 28.4334 66.7022 31.0444C66.3908 31.1869 66.1659 31.4559 66.1011 31.7636C65.2699 35.7082 65.7144 38.8831 67.3869 40.9445C67.5825 41.1854 67.797 41.4123 68.028 41.6246C68.297 41.8717 68.7307 41.7331 68.8202 41.3791C70.8022 33.5285 80.4219 26.8116 79.1394 26.8116Z" fill="#3DAAED"/>
<path d="M56.7911 7.16003L31.436 32.5153C38.4554 39.297 49.6427 39.2244 56.5716 32.2956C63.5004 25.3667 63.5728 14.1794 56.7911 7.16003Z" fill="#E0AE10"/>
<path d="M43.4847 28.3037C40.4307 28.2544 38.3619 26.6042 38.3619 25.3975C38.3619 24.8063 38.879 23.9935 39.4947 23.9935C40.3076 23.9935 40.9724 25.7175 43.4847 25.9146V20.1267C41.2681 19.3386 38.8051 18.4519 38.8051 15.2993C38.8051 12.196 41.1449 10.9646 43.4847 10.7182V10.004C43.4847 9.7085 43.7802 9.43756 44.1991 9.43756C44.5685 9.43756 44.938 9.7085 44.938 10.004V10.6691C46.6128 10.7184 48.9773 11.2355 48.9773 12.4424C48.9773 12.9104 48.6325 13.8462 47.8936 13.8462C47.3026 13.8462 46.6621 13.0582 44.938 12.935V17.9346C47.0808 18.7227 49.4206 19.8064 49.4206 23.1561C49.4206 26.1855 47.5981 27.8603 44.938 28.2298V29.0672C44.938 29.3627 44.5687 29.6336 44.1991 29.6336C43.7804 29.6336 43.4847 29.3627 43.4847 29.0672V28.3037ZM43.6325 17.4668V12.9843C42.2532 13.1566 41.2681 13.7723 41.2681 15.0532C41.2681 16.457 42.3271 16.9743 43.6325 17.4668ZM44.7901 20.6686V25.8653C46.12 25.6189 46.9574 24.8308 46.9574 23.4269C46.9574 21.8755 45.997 21.1859 44.7901 20.6686Z" fill="#5A5A5A"/>
</g>
<defs>
<clipPath id="clip0">
<path d="M0 0H96V96H0V0Z" fill="white"/>
</clipPath>
</defs>
</svg>
