<svg width="96" height="96" viewBox="0 0 96 96" fill="none" xmlns="http://www.w3.org/2000/svg">
<g opacity="0.8">
<g clip-path="url(#clip0)">
<path d="M48 32.184C32.2967 31.9652 4.07455 36.6833 4.07455 36.6833L6.77887 49.869L27.7672 48.1069C32.0638 47.7461 35.8296 50.9591 36.1496 55.2589L38.6216 88.4576H48H57.3784L59.8504 55.2589C60.1706 50.9591 63.9364 47.7461 68.2327 48.1069L89.2211 49.869L91.9254 36.6833C91.9254 36.6833 63.7033 31.9652 48 32.184Z" fill="#888888"/>
<path d="M89.9048 46.5362L89.2221 49.87L68.2329 48.1063C63.936 47.7467 60.171 50.9586 59.85 55.2593L57.3788 88.4584H53.0046L56.205 51.765C56.5241 47.4662 60.291 44.2523 64.5879 44.614L89.9048 46.5362Z" fill="#5A5A5A"/>
<path d="M72.2018 48.441L68.2324 48.1078C63.9358 47.7471 60.1699 50.9603 59.85 55.2602L58.806 69.2886L58.459 69.3268C51.3926 70.1254 44.2626 70.1468 37.2004 69.3864L36.1498 55.2604C35.83 50.9604 32.064 47.7471 27.7675 48.1078L23.7985 48.441C23.9156 43.1338 23.1936 37.7372 22.5461 34.0528C31.0564 33.0135 40.8315 32.0829 48.0002 32.1829C55.1687 32.0828 64.944 33.0135 73.4543 34.0528C72.8066 37.7372 72.0846 43.1338 72.2018 48.441Z" fill="#3DAAED"/>
<path d="M72.2012 48.4389C71.9325 48.4395 71.646 48.3943 71.3751 48.3716C70.8173 48.3249 70.2594 48.2781 69.7016 48.2314C68.5196 48.1324 67.3494 47.9906 66.1689 48.2093C64.0851 48.5953 62.2174 49.851 61.0667 51.63C60.324 52.7781 59.9383 54.0765 59.8374 55.4333C59.7186 57.031 59.5995 58.6288 59.4806 60.2265C59.3145 62.4574 59.1486 64.6883 58.9824 66.919C58.932 67.5966 58.8816 68.2742 58.8311 68.9518C58.8264 69.0148 58.8484 69.235 58.8064 69.2854C58.7867 69.3092 58.665 69.3045 58.6331 69.3081C58.4533 69.3281 58.2735 69.3484 58.0935 69.3681C57.507 69.432 56.9201 69.4909 56.3327 69.5445C55.7698 69.5959 55.2066 69.6422 54.6429 69.6833C54.6868 69.1804 54.7307 68.6775 54.7746 68.1748C54.8824 66.9379 54.9902 65.7011 55.0982 64.4642C55.2339 62.907 55.3697 61.3496 55.5056 59.7925C55.635 58.3088 55.7644 56.8251 55.8938 55.3414C55.9808 54.3444 56.0676 53.3473 56.1546 52.3504C56.2466 51.2953 56.3876 50.2665 56.811 49.2805C57.6499 47.3263 59.3001 45.7719 61.2992 45.0476C62.3336 44.6728 63.4393 44.5279 64.5358 44.6098C64.8311 44.6319 65.1264 44.655 65.4218 44.6773C66.8805 44.7881 68.3394 44.8989 69.7984 45.0096C70.4177 45.0566 71.0368 45.1037 71.6561 45.1506C71.8146 45.1626 71.9839 45.1594 72.1404 45.1873C72.1592 45.1907 72.2102 45.1821 72.2261 45.1939C72.2543 45.2147 72.2196 45.4808 72.2181 45.5243C72.2117 45.7328 72.2063 45.9413 72.2021 46.1496C72.1856 46.9127 72.1847 47.676 72.2012 48.4389Z" fill="#2B91D0"/>
<path d="M48 0C21.4899 0 0 21.4899 0 48C0 74.5101 21.4899 96 48 96C74.5101 96 96 74.5101 96 48C96 21.4899 74.5101 0 48 0ZM48 85.6215C27.2216 85.6215 10.3785 68.7784 10.3785 48C10.3785 27.2235 27.2216 10.3785 48 10.3785C68.7784 10.3785 85.6215 27.2237 85.6215 48C85.6215 68.7784 68.7784 85.6215 48 85.6215Z" fill="#5A5A5A"/>
<path d="M74.3128 7.84723C84.7746 16.6517 91.4209 29.8438 91.4209 44.5869C91.4209 71.097 69.9309 92.5869 43.4209 92.5869C33.7056 92.5869 24.6653 89.7017 17.1081 84.7397C25.4561 91.767 36.2349 96 48 96C74.5101 96 96 74.51 96 48C96 31.2052 87.3754 16.4254 74.3128 7.84723Z" fill="#444444"/>
<path d="M40.2416 47.4021H37.4411C36.9499 47.4021 36.5518 47.0039 36.5518 46.5128V43.7123C36.5518 43.2211 36.9501 42.823 37.4411 42.823H41.1311V46.513C41.1311 47.0039 40.7329 47.4021 40.2416 47.4021Z" fill="#FAC600"/>
<path d="M49.4003 47.4021H46.5998C46.1085 47.4021 45.7104 47.0039 45.7104 46.5128V42.8228H50.2898V46.5128C50.2896 47.0039 49.8915 47.4021 49.4003 47.4021Z" fill="#FAC600"/>
<path d="M58.5589 47.4021H55.7584C55.2671 47.4021 54.8691 47.0039 54.8691 46.5128V42.8228H58.5591C59.0503 42.8228 59.4484 43.2211 59.4484 43.7121V46.5126C59.4482 47.0039 59.0501 47.4021 58.5589 47.4021Z" fill="#FAC600"/>
<path d="M45.7104 42.8228H41.1311V39.1328C41.1311 38.6415 41.5294 38.2435 42.0204 38.2435H44.8209C45.3122 38.2435 45.7103 38.6417 45.7103 39.1328V42.8228H45.7104Z" fill="#FAC600"/>
<path d="M54.8689 42.8228H50.2896V39.1328C50.2896 38.6415 50.6878 38.2435 51.1789 38.2435H53.9794C54.4706 38.2435 54.8687 38.6417 54.8687 39.1328V42.8228H54.8689Z" fill="#FAC600"/>
</g>
</g>
<defs>
<clipPath id="clip0">
<path d="M0 0H96V96H0V0Z" fill="white"/>
</clipPath>
</defs>
</svg>
