<svg width="249" height="48" viewBox="0 0 249 48" fill="none" xmlns="http://www.w3.org/2000/svg">
<path d="M106.608 19.2109H101.676L100.814 22H96.9692L102.445 7.07031H105.829L111.345 22H107.479L106.608 19.2109ZM102.537 16.4321H105.747L104.137 11.2539L102.537 16.4321ZM122.091 16.5347C122.091 18.2573 121.702 19.6348 120.922 20.667C120.15 21.6924 119.104 22.2051 117.785 22.2051C116.766 22.2051 115.929 21.8325 115.272 21.0874V26.2656H111.817V10.9053H115.047L115.149 11.9307C115.812 11.1104 116.684 10.7002 117.764 10.7002C119.131 10.7002 120.194 11.2061 120.953 12.2178C121.712 13.2227 122.091 14.6069 122.091 16.3706V16.5347ZM118.636 16.3193C118.636 14.3506 118.062 13.3662 116.913 13.3662C116.093 13.3662 115.546 13.6602 115.272 14.248V18.6162C115.573 19.2314 116.127 19.5391 116.934 19.5391C118.034 19.5391 118.602 18.5889 118.636 16.6885V16.3193ZM128.992 22.2051C127.29 22.2051 125.913 21.6992 124.86 20.6875C123.807 19.6689 123.281 18.3462 123.281 16.7192V16.4321C123.281 15.2974 123.489 14.2959 123.906 13.4277C124.33 12.5596 124.945 11.8896 125.752 11.418C126.559 10.9395 127.516 10.7002 128.623 10.7002C130.182 10.7002 131.412 11.1855 132.314 12.1562C133.217 13.1201 133.668 14.4668 133.668 16.1963V17.5396H126.798C126.921 18.1616 127.191 18.6504 127.608 19.0059C128.025 19.3613 128.565 19.5391 129.228 19.5391C130.322 19.5391 131.176 19.1562 131.792 18.3906L133.371 20.2568C132.94 20.8516 132.328 21.3267 131.535 21.6821C130.749 22.0308 129.901 22.2051 128.992 22.2051ZM128.603 13.3662C127.591 13.3662 126.989 14.0361 126.798 15.376H130.284V15.1094C130.298 14.5557 130.158 14.1284 129.864 13.8276C129.57 13.52 129.149 13.3662 128.603 13.3662ZM144.947 22H141.481V17.8882H138.457V22H135.001V10.9053H138.457V15.2324H141.481V10.9053H144.947V22ZM147.131 19.334C147.685 18.7803 148.085 18.23 148.331 17.6831C148.584 17.1362 148.731 16.5005 148.772 15.7759L148.803 15.0171L148.864 10.9053H157.508V19.334H159.169V25.3633H155.704V22H149.695V25.3633H146.147L146.137 19.334H147.131ZM151.11 19.334H154.063V13.5713H152.289L152.279 14.4839C152.231 16.48 151.841 18.0967 151.11 19.334ZM166.604 22C166.48 21.7744 166.371 21.4429 166.275 21.0054C165.64 21.8052 164.751 22.2051 163.609 22.2051C162.563 22.2051 161.675 21.8906 160.943 21.2617C160.212 20.626 159.846 19.8296 159.846 18.8726C159.846 17.6694 160.291 16.7603 161.179 16.145C162.068 15.5298 163.36 15.2222 165.055 15.2222H166.122V14.6377C166.122 13.6191 165.681 13.1099 164.799 13.1099C163.979 13.1099 163.568 13.5132 163.568 14.3198H160.113C160.113 13.2466 160.567 12.375 161.477 11.7051C162.393 11.0352 163.558 10.7002 164.973 10.7002C166.388 10.7002 167.506 11.0454 168.326 11.7358C169.146 12.4263 169.567 13.373 169.587 14.5762V19.4878C169.601 20.5063 169.758 21.2856 170.059 21.8257V22H166.604ZM164.44 19.7441C164.871 19.7441 165.226 19.6519 165.506 19.4673C165.793 19.2827 165.999 19.0742 166.122 18.8418V17.0679H165.117C163.914 17.0679 163.312 17.6079 163.312 18.688C163.312 19.0024 163.418 19.2588 163.63 19.457C163.842 19.6484 164.112 19.7441 164.44 19.7441ZM186.988 9.84912H180.518V12.2075H182.374C183.557 12.2075 184.603 12.4092 185.512 12.8125C186.421 13.2158 187.118 13.7866 187.604 14.5249C188.096 15.2563 188.342 16.0972 188.342 17.0474C188.342 18.5171 187.795 19.71 186.701 20.626C185.614 21.542 184.151 22 182.312 22H176.898V7.07031H186.988V9.84912ZM180.518 14.9761V19.2314H182.364C183.095 19.2314 183.673 19.0264 184.097 18.6162C184.527 18.2061 184.743 17.6763 184.743 17.0269C184.743 16.4116 184.531 15.916 184.107 15.54C183.683 15.1641 183.095 14.9761 182.343 14.9761H180.518ZM194.75 7.07031L198.083 17.4575L201.405 7.07031H206.143V22H202.533V18.5137L202.882 11.377L199.272 22H196.894L193.274 11.3667L193.623 18.5137V22H190.023V7.07031H194.75ZM208.439 22V7.07031H213.802C215.723 7.07031 217.183 7.42236 218.181 8.12646C219.186 8.83057 219.688 9.85254 219.688 11.1924C219.688 11.9648 219.51 12.6245 219.155 13.1714C218.799 13.7183 218.276 14.1216 217.586 14.3813C218.365 14.5864 218.963 14.9692 219.38 15.5298C219.797 16.0903 220.006 16.7739 220.006 17.5806C220.006 19.0435 219.541 20.144 218.611 20.8823C217.688 21.6138 216.318 21.9863 214.5 22H208.439ZM212.039 15.6528V19.2314H214.397C215.046 19.2314 215.545 19.0845 215.894 18.7905C216.243 18.4897 216.417 18.0693 216.417 17.5293C216.417 16.2852 215.798 15.6597 214.561 15.6528H212.039ZM212.039 13.2944H213.915C214.701 13.2876 215.262 13.144 215.597 12.8638C215.932 12.5835 216.099 12.1699 216.099 11.623C216.099 10.9941 215.918 10.543 215.556 10.2695C215.193 9.98926 214.609 9.84912 213.802 9.84912H212.039V13.2944Z" fill="#212529"/>
<path opacity="0.5" d="M98.3203 42V30.625H102.039C103.273 30.625 104.201 30.8802 104.82 31.3906C105.445 31.901 105.758 32.6562 105.758 33.6562C105.758 34.1875 105.607 34.6589 105.305 35.0703C105.003 35.4766 104.591 35.7917 104.07 36.0156C104.685 36.1875 105.169 36.5156 105.523 37C105.883 37.4792 106.062 38.0521 106.062 38.7188C106.062 39.7396 105.732 40.5417 105.07 41.125C104.409 41.7083 103.474 42 102.266 42H98.3203ZM99.8203 36.6797V40.7734H102.297C102.995 40.7734 103.544 40.5938 103.945 40.2344C104.352 39.8698 104.555 39.3698 104.555 38.7344C104.555 37.3646 103.81 36.6797 102.32 36.6797H99.8203ZM99.8203 35.4766H102.086C102.742 35.4766 103.266 35.3125 103.656 34.9844C104.052 34.6562 104.25 34.2109 104.25 33.6484C104.25 33.0234 104.068 32.5703 103.703 32.2891C103.339 32.0026 102.784 31.8594 102.039 31.8594H99.8203V35.4766ZM114.195 30.625L117.914 39.9062L121.633 30.625H123.578V42H122.078V37.5703L122.219 32.7891L118.484 42H117.336L113.609 32.8125L113.758 37.5703V42H112.258V30.625H114.195ZM125.617 37.6953C125.617 36.8672 125.779 36.1224 126.102 35.4609C126.43 34.7995 126.883 34.2891 127.461 33.9297C128.044 33.5703 128.708 33.3906 129.453 33.3906C130.604 33.3906 131.534 33.7891 132.242 34.5859C132.956 35.3828 133.312 36.4427 133.312 37.7656V37.8672C133.312 38.6901 133.154 39.4297 132.836 40.0859C132.523 40.737 132.073 41.2448 131.484 41.6094C130.901 41.974 130.229 42.1562 129.469 42.1562C128.323 42.1562 127.393 41.7578 126.68 40.9609C125.971 40.1641 125.617 39.1094 125.617 37.7969V37.6953ZM127.07 37.8672C127.07 38.8047 127.286 39.5573 127.719 40.125C128.156 40.6927 128.74 40.9766 129.469 40.9766C130.203 40.9766 130.786 40.6901 131.219 40.1172C131.651 39.5391 131.867 38.7318 131.867 37.6953C131.867 36.7682 131.646 36.0182 131.203 35.4453C130.766 34.8672 130.182 34.5781 129.453 34.5781C128.74 34.5781 128.164 34.862 127.727 35.4297C127.289 35.9974 127.07 36.8099 127.07 37.8672ZM138.516 40.9766C139.031 40.9766 139.482 40.8203 139.867 40.5078C140.253 40.1953 140.466 39.8047 140.508 39.3359H141.875C141.849 39.8203 141.682 40.2812 141.375 40.7188C141.068 41.1562 140.656 41.5052 140.141 41.7656C139.63 42.026 139.089 42.1562 138.516 42.1562C137.365 42.1562 136.448 41.7734 135.766 41.0078C135.089 40.237 134.75 39.1849 134.75 37.8516V37.6094C134.75 36.7865 134.901 36.0547 135.203 35.4141C135.505 34.7734 135.938 34.276 136.5 33.9219C137.068 33.5677 137.737 33.3906 138.508 33.3906C139.456 33.3906 140.242 33.6745 140.867 34.2422C141.497 34.8099 141.833 35.5469 141.875 36.4531H140.508C140.466 35.9062 140.258 35.4583 139.883 35.1094C139.513 34.7552 139.055 34.5781 138.508 34.5781C137.773 34.5781 137.203 34.8438 136.797 35.375C136.396 35.901 136.195 36.6641 136.195 37.6641V37.9375C136.195 38.9115 136.396 39.6615 136.797 40.1875C137.198 40.7135 137.771 40.9766 138.516 40.9766ZM146.133 38.3984H145.078V42H143.625V33.5469H145.078V37.125H146.023L148.867 33.5469H150.617L147.273 37.6094L150.898 42H149.062L146.133 38.3984ZM152.273 42V33.5469H155.57C156.695 33.5469 157.557 33.7448 158.156 34.1406C158.76 34.5312 159.062 35.1068 159.062 35.8672C159.062 36.2578 158.945 36.612 158.711 36.9297C158.477 37.2422 158.13 37.4818 157.672 37.6484C158.182 37.7682 158.591 38.0026 158.898 38.3516C159.211 38.7005 159.367 39.1172 159.367 39.6016C159.367 40.3776 159.081 40.9714 158.508 41.3828C157.94 41.7943 157.135 42 156.094 42H152.273ZM153.719 38.2891V40.8359H156.109C156.714 40.8359 157.164 40.724 157.461 40.5C157.763 40.276 157.914 39.9609 157.914 39.5547C157.914 38.7109 157.294 38.2891 156.055 38.2891H153.719ZM153.719 37.1328H155.586C156.94 37.1328 157.617 36.737 157.617 35.9453C157.617 35.1536 156.977 34.7448 155.695 34.7188H153.719V37.1328ZM164.789 42.1562C163.643 42.1562 162.711 41.7812 161.992 41.0312C161.273 40.276 160.914 39.2682 160.914 38.0078V37.7422C160.914 36.9036 161.073 36.1562 161.391 35.5C161.714 34.8385 162.161 34.3229 162.734 33.9531C163.312 33.5781 163.938 33.3906 164.609 33.3906C165.708 33.3906 166.562 33.7526 167.172 34.4766C167.781 35.2005 168.086 36.237 168.086 37.5859V38.1875H162.359C162.38 39.0208 162.622 39.6953 163.086 40.2109C163.555 40.7214 164.148 40.9766 164.867 40.9766C165.378 40.9766 165.81 40.8724 166.164 40.6641C166.518 40.4557 166.828 40.1797 167.094 39.8359L167.977 40.5234C167.268 41.612 166.206 42.1562 164.789 42.1562ZM164.609 34.5781C164.026 34.5781 163.536 34.7917 163.141 35.2188C162.745 35.6406 162.5 36.2344 162.406 37H166.641V36.8906C166.599 36.1562 166.401 35.5885 166.047 35.1875C165.693 34.7812 165.214 34.5781 164.609 34.5781ZM179.203 33.5469H180.648V42H179.203V35.8359L175.305 42H173.859V33.5469H175.305V39.7188L179.203 33.5469ZM195.914 36.6797C195.914 37.7943 195.727 38.7682 195.352 39.6016C194.977 40.4297 194.445 41.0625 193.758 41.5C193.07 41.9375 192.268 42.1562 191.352 42.1562C190.456 42.1562 189.661 41.9375 188.969 41.5C188.276 41.0573 187.737 40.4297 187.352 39.6172C186.971 38.7995 186.776 37.8542 186.766 36.7812V35.9609C186.766 34.8672 186.956 33.901 187.336 33.0625C187.716 32.224 188.253 31.5833 188.945 31.1406C189.643 30.6927 190.44 30.4688 191.336 30.4688C192.247 30.4688 193.049 30.6901 193.742 31.1328C194.44 31.5703 194.977 32.2083 195.352 33.0469C195.727 33.8802 195.914 34.8516 195.914 35.9609V36.6797ZM194.422 35.9453C194.422 34.5964 194.151 33.5625 193.609 32.8438C193.068 32.1198 192.31 31.7578 191.336 31.7578C190.388 31.7578 189.641 32.1198 189.094 32.8438C188.552 33.5625 188.273 34.5625 188.258 35.8438V36.6797C188.258 37.987 188.531 39.0156 189.078 39.7656C189.63 40.5104 190.388 40.8828 191.352 40.8828C192.32 40.8828 193.07 40.5312 193.602 39.8281C194.133 39.1198 194.406 38.1068 194.422 36.7891V35.9453ZM201.648 34.0312C202.711 34.0312 203.56 34.388 204.195 35.1016C204.836 35.8099 205.156 36.7448 205.156 37.9062V38.0391C205.156 38.8359 205.003 39.5495 204.695 40.1797C204.388 40.8047 203.945 41.2917 203.367 41.6406C202.794 41.9844 202.133 42.1562 201.383 42.1562C200.247 42.1562 199.333 41.7786 198.641 41.0234C197.948 40.263 197.602 39.2448 197.602 37.9688V37.2656C197.602 35.4896 197.93 34.0781 198.586 33.0312C199.247 31.9844 200.221 31.3464 201.508 31.1172C202.237 30.987 202.729 30.8281 202.984 30.6406C203.24 30.4531 203.367 30.1953 203.367 29.8672H204.555C204.555 30.5182 204.406 31.026 204.109 31.3906C203.818 31.7552 203.349 32.013 202.703 32.1641L201.625 32.4062C200.766 32.6094 200.12 32.9531 199.688 33.4375C199.26 33.9167 198.982 34.5573 198.852 35.3594C199.617 34.474 200.549 34.0312 201.648 34.0312ZM201.367 35.2188C200.659 35.2188 200.096 35.4583 199.68 35.9375C199.263 36.4115 199.055 37.0703 199.055 37.9141V38.0391C199.055 38.9453 199.263 39.6641 199.68 40.1953C200.102 40.7214 200.669 40.9844 201.383 40.9844C202.102 40.9844 202.669 40.7188 203.086 40.1875C203.503 39.6562 203.711 38.8802 203.711 37.8594C203.711 37.0625 203.5 36.4245 203.078 35.9453C202.661 35.4609 202.091 35.2188 201.367 35.2188ZM213.711 33.5469V42H212.258V34.7422H209.383L209.211 37.9062C209.117 39.3594 208.872 40.3984 208.477 41.0234C208.086 41.6484 207.464 41.974 206.609 42H206.031V40.7266L206.445 40.6953C206.914 40.6432 207.25 40.3724 207.453 39.8828C207.656 39.3932 207.786 38.487 207.844 37.1641L208 33.5469H213.711ZM221.25 42C221.167 41.8333 221.099 41.5365 221.047 41.1094C220.375 41.8073 219.573 42.1562 218.641 42.1562C217.807 42.1562 217.122 41.9219 216.586 41.4531C216.055 40.9792 215.789 40.3802 215.789 39.6562C215.789 38.776 216.122 38.0938 216.789 37.6094C217.461 37.1198 218.404 36.875 219.617 36.875H221.023V36.2109C221.023 35.7057 220.872 35.3047 220.57 35.0078C220.268 34.7057 219.823 34.5547 219.234 34.5547C218.719 34.5547 218.286 34.6849 217.938 34.9453C217.589 35.2057 217.414 35.5208 217.414 35.8906H215.961C215.961 35.4688 216.109 35.0625 216.406 34.6719C216.708 34.276 217.115 33.9635 217.625 33.7344C218.141 33.5052 218.706 33.3906 219.32 33.3906C220.294 33.3906 221.057 33.6354 221.609 34.125C222.161 34.6094 222.448 35.2786 222.469 36.1328V40.0234C222.469 40.7995 222.568 41.4167 222.766 41.875V42H221.25ZM218.852 40.8984C219.305 40.8984 219.734 40.7812 220.141 40.5469C220.547 40.3125 220.841 40.0078 221.023 39.6328V37.8984H219.891C218.12 37.8984 217.234 38.4167 217.234 39.4531C217.234 39.9062 217.385 40.2604 217.688 40.5156C217.99 40.7708 218.378 40.8984 218.852 40.8984ZM228.125 40.9766C228.641 40.9766 229.091 40.8203 229.477 40.5078C229.862 40.1953 230.076 39.8047 230.117 39.3359H231.484C231.458 39.8203 231.292 40.2812 230.984 40.7188C230.677 41.1562 230.266 41.5052 229.75 41.7656C229.24 42.026 228.698 42.1562 228.125 42.1562C226.974 42.1562 226.057 41.7734 225.375 41.0078C224.698 40.237 224.359 39.1849 224.359 37.8516V37.6094C224.359 36.7865 224.51 36.0547 224.812 35.4141C225.115 34.7734 225.547 34.276 226.109 33.9219C226.677 33.5677 227.346 33.3906 228.117 33.3906C229.065 33.3906 229.852 33.6745 230.477 34.2422C231.107 34.8099 231.443 35.5469 231.484 36.4531H230.117C230.076 35.9062 229.867 35.4583 229.492 35.1094C229.122 34.7552 228.664 34.5781 228.117 34.5781C227.383 34.5781 226.812 34.8438 226.406 35.375C226.005 35.901 225.805 36.6641 225.805 37.6641V37.9375C225.805 38.9115 226.005 39.6615 226.406 40.1875C226.807 40.7135 227.38 40.9766 228.125 40.9766ZM239.391 34.7188H236.555V42H235.109V34.7188H232.328V33.5469H239.391V34.7188ZM246.266 33.5469H247.711V42H246.266V35.8359L242.367 42H240.922V33.5469H242.367V39.7188L246.266 33.5469Z" fill="#212529"/>
<g clip-path="url(#clip0)">
<path d="M58.5652 16.6957H47.087V10.4348H67.9565L73.8696 0H27.9565L0.130432 48H12.3043L18.3913 37.5652H36.6522V48H57.5217C67.0869 48 73.8696 39.687 73.8696 32C73.8696 24.3826 68.6174 16.6957 58.5652 16.6957ZM24.4087 27.1304L34.0087 10.4348H36.6522V27.1304H24.4087ZM57.5217 37.5652H47.087V27.1304H57.5217C61.9391 27.1304 63.4348 29.2174 63.4348 32.3478C63.4348 35.4783 60.8956 37.5652 57.5217 37.5652Z" fill="#3DAAED"/>
<rect x="47.087" width="11.8261" height="10.4348" fill="url(#paint0_linear)"/>
<rect x="47.087" y="16.6956" width="11.8261" height="10.4348" fill="url(#paint1_linear)"/>
<rect width="11.8261" height="10.4348" transform="matrix(-1 0 0 1 36.6522 27.1304)" fill="url(#paint2_linear)"/>
<rect x="47.087" y="37.5652" width="11.8261" height="10.4348" fill="url(#paint3_linear)"/>
</g>
<defs>
<linearGradient id="paint0_linear" x1="47.087" y1="5.73913" x2="58.913" y2="5.73913" gradientUnits="userSpaceOnUse">
<stop stop-color="#2B91D0"/>
<stop offset="1" stop-color="#3DAAED"/>
</linearGradient>
<linearGradient id="paint1_linear" x1="47.087" y1="22.4348" x2="58.913" y2="22.4348" gradientUnits="userSpaceOnUse">
<stop stop-color="#2B91D0"/>
<stop offset="1" stop-color="#3DAAED"/>
</linearGradient>
<linearGradient id="paint2_linear" x1="0" y1="5.73913" x2="11.8261" y2="5.73913" gradientUnits="userSpaceOnUse">
<stop stop-color="#2B91D0"/>
<stop offset="1" stop-color="#3DAAED"/>
</linearGradient>
<linearGradient id="paint3_linear" x1="47.087" y1="43.3043" x2="58.913" y2="43.3043" gradientUnits="userSpaceOnUse">
<stop stop-color="#2B91D0"/>
<stop offset="1" stop-color="#3DAAED"/>
</linearGradient>
<clipPath id="clip0">
<path d="M0 0H73.7391V48H0V0Z" fill="white"/>
</clipPath>
</defs>
</svg>
